<?xml version="1.0" encoding="utf-8"?>
<!-- Generator: Adobe Illustrator 28.3.0, SVG Export Plug-In . SVG Version: 6.00 Build 0)  -->
<svg version="1.1" id="Layer_1" xmlns="http://www.w3.org/2000/svg" xmlns:xlink="http://www.w3.org/1999/xlink" x="0px" y="0px"
	 viewBox="0 0 128 128" style="enable-background:new 0 0 128 128;" xml:space="preserve">
<style type="text/css">
	.st0{fill:#FAB300;}
</style>
<g>
	<path class="st0" d="M100.13,70.24L112,64l-11.87-6.24c-0.37-2.18-0.95-4.33-1.72-6.41L105.57,40l-13.41,0.53
		c-0.71-0.85-1.45-1.66-2.24-2.45c-0.79-0.79-1.6-1.53-2.45-2.24L88,22.43l-11.34,7.16c-2.09-0.77-4.23-1.34-6.41-1.72L64,16
		l-6.24,11.87c-2.18,0.37-4.33,0.95-6.41,1.72L40,22.43l0.53,13.41c-0.85,0.71-1.66,1.45-2.45,2.24c-0.79,0.79-1.53,1.6-2.24,2.45
		L22.43,40l7.16,11.34c-0.77,2.09-1.34,4.23-1.72,6.41L16,64l11.87,6.24c0.37,2.18,0.95,4.33,1.72,6.41L22.43,88l13.41-0.53
		c0.71,0.85,1.45,1.66,2.24,2.45c0.79,0.79,1.6,1.53,2.45,2.24L40,105.57l11.34-7.16c2.09,0.77,4.23,1.34,6.41,1.72L64,112
		l6.24-11.87c2.18-0.37,4.33-0.95,6.41-1.72L88,105.57l-0.53-13.41c0.85-0.71,1.66-1.45,2.45-2.24c0.79-0.79,1.53-1.6,2.24-2.45
		L105.57,88l-7.16-11.34C99.18,74.57,99.75,72.43,100.13,70.24z M92.26,75.94c-1.54,3.65-3.76,6.93-6.57,9.75
		c-2.82,2.82-6.1,5.03-9.75,6.57c-3.78,1.6-7.79,2.41-11.94,2.41s-8.16-0.81-11.94-2.41c-3.65-1.54-6.93-3.76-9.75-6.57
		c-2.82-2.82-5.03-6.1-6.57-9.75c-1.6-3.78-2.41-7.79-2.41-11.94s0.81-8.16,2.41-11.94c1.54-3.65,3.76-6.93,6.57-9.75
		c2.82-2.82,6.1-5.03,9.75-6.57c3.78-1.6,7.79-2.41,11.94-2.41s8.16,0.81,11.94,2.41c3.65,1.54,6.93,3.76,9.75,6.57
		c2.82,2.82,5.03,6.1,6.57,9.75c1.6,3.78,2.41,7.79,2.41,11.94S93.86,72.16,92.26,75.94z"/>
	<polygon class="st0" points="65.65,42.12 50.47,69.4 61.57,69.4 62.35,86.07 77.53,58.79 66.43,58.79 	"/>
</g>
</svg>
